<?xml version="1.0" ?>
<svg  id="Layer_1" style="enable-background:new 0 0 128 128;" version="1.1"
  viewBox="0 0 128 128" xml:space="preserve"
  xmlns="http://www.w3.org/2000/svg"
  xmlns:xlink="http://www.w3.org/1999/xlink">

  <rect width="100%" height="100%" fill="white"/>

  <style type="text/css">
    .st0{fill:#1C4FBE;}
    .st1{fill:#EE693F;}
    .st2{fill:#FFB8CB;}
    .st3{fill:#F94003;}
    .st4{fill:#DEA740;}
    .st5{fill:#1CB6BE;}
    .st6{fill:#BCCE3E;}
    .st7{fill:#EDEFF2;}
    .st8{fill:#684E3C;}
    .st9{fill:#100F0D;}
    .st10{fill:#5B4332;}
    .st11{fill:#5C7242;}
    .st12{fill:#E1B0AF;}
    .st13{fill:#EC5527;}
    .st14{fill:#057590;}
    .st15{fill:#771C39;}
    .st16{fill:#F8A70C;}
    .st17{fill:#F06522;}
    .st18{fill:#FFFFFF;}
    .st19{fill:#CC7C2C;}
    .st20{fill:#5D6124;}
    .st21{fill:#E6AA30;}
    .st22{fill:#2AB06A;}
    .st23{fill:#725948;}
    .st24{fill:#1A1613;}
    .st25{fill:none;}
    .st26{fill:#EE4D4C;}
  </style>

  <g>
    <path d="M46.2,108.3c2.6-17.2-4.3-37.1,8.1-52.2c4.3-5.3,13.9-7.9,16.6-13.6c2.8-5.9-0.6-23,0-30.2C72.4-7,77.9,23,84,25.6   c1.9,0.8,14.4,1,15.6,0.1c2.5-1.7,6.7-22.1,11-20.5c5.4,1.9,1.7,72.6,1.5,80.5c-0.2,8,2,33.4-4.7,37.5c-4.2,2.6-16.5,1.3-21.6,1.6   c-8.2,0.5-16.5,0.4-24.7-0.1c-13.7-0.9-24.8,0.2-33.7-11.5c-8.8-11.4-8.4-24-7.4-38c0.7-10.3,3.8-19.4,6.5-27.3   c2-5.7,10.4-3,8.8,2.8c-1.3,4.6-3.3,9.7-3.9,15.4C29.3,85.1,35,105.3,46.2,108.3z"/>
  </g>

  <path class="st18" d="M108.4,44.1c-3.6,2.5-7.4,3.2-11.6,2.9c-0.9,0-1.5-0.9-1.2-1.8c0.7-2.3,1.3-4.5,1-6.9  c-0.1-1.1,0.3-1.5,1.4-1.1c3.5,1.3,7,2.5,10.3,4.6C109.1,42.4,109.1,43.6,108.4,44.1z"/>
  <path class="st18" d="M74.8,39.8c2-1.3,4.5-2.1,10.4-3.3c0.9-0.2,1.8,0.6,1.6,1.6c-0.4,2-0.4,3.9,0.4,5.8c0.4,0.9-0.4,1.9-1.4,1.8  c-3.9-0.5-7.4-2-10.8-3.6C74,41.7,73.9,40.4,74.8,39.8z"/>

</svg>
